<svg width="21" height="21" viewBox="0 0 21 21" fill="none" xmlns="http://www.w3.org/2000/svg">
<path d="M20.1083 15.5141V18.5141C20.1095 18.7926 20.0524 19.0683 19.9408 19.3234C19.8293 19.5786 19.6656 19.8077 19.4604 19.996C19.2552 20.1842 19.0129 20.3276 18.7491 20.4168C18.4853 20.506 18.2057 20.5392 17.9283 20.5141C14.8512 20.1797 11.8953 19.1282 9.29833 17.4441C6.88216 15.9088 4.83367 13.8603 3.29833 11.4441C1.60831 8.8353 0.556575 5.86509 0.228332 2.77409C0.203342 2.49756 0.236206 2.21885 0.324832 1.95572C0.413457 1.69258 0.555902 1.45078 0.743098 1.24571C0.930293 1.04064 1.15814 0.8768 1.41212 0.764613C1.66611 0.652426 1.94067 0.594353 2.21833 0.594091H5.21833C5.70364 0.589315 6.17412 0.76117 6.54209 1.07762C6.91006 1.39408 7.15041 1.83354 7.21833 2.31409C7.34495 3.27416 7.57978 4.21682 7.91833 5.12409C8.05288 5.48201 8.08199 5.87101 8.00224 6.24497C7.92248 6.61894 7.73719 6.9622 7.46833 7.23409L6.19833 8.50409C7.62189 11.0076 9.69479 13.0805 12.1983 14.5041L13.4683 13.2341C13.7402 12.9652 14.0835 12.7799 14.4575 12.7002C14.8314 12.6204 15.2204 12.6495 15.5783 12.7841C16.4856 13.1226 17.4283 13.3575 18.3883 13.4841C18.8741 13.5526 19.3177 13.7973 19.6349 14.1716C19.952 14.5459 20.1205 15.0237 20.1083 15.5141Z" fill="black"/>
</svg>
